PathFileType	4	(X/Y/Z)	2425~aa~Standing.trc
DataRate	CameraRate	NumFrames	NumMarkers	Units	OrigDataRate	OrigDataStartFrame	OrigNumFrames
100.0	100.0	9	61	m	100.0	0	707
Frame#	Time	r_asis			l_asis			r_bar_1			l_bar_1			RATT			LATT			SCR1			SCR2			r_bar_2			SCL1			SCL2			l_bar_2			MIDASIS			PO			RFCG			LFCG			RCCG			LCCG			RA_rel			LA_rel			SHO			LTCG			LK_rel			RTCG			RK_rel			refRMALL			refLMALL			RATTrel			SCR1rel			SCR2rel			rbar2rel			refRA			refLA			LATTrel			SCL1rel			SCL2rel			lbar2rel			N			RASI			LASI			RAC			LAC			HIPL			HIPR			RKNE			LKNE			RANK			LANK			KNER			KNEL			RTIO			LTIO			RHEE			LHEE			RTOE			LTOE			SAC			RMMv			LMMv			RMFC			LMFC
		X1	Y1	Z1	X2	Y2	Z2	X3	Y3	Z3	X4	Y4	Z4	X5	Y5	Z5	X6	Y6	Z6	X7	Y7	Z7	X8	Y8	Z8	X9	Y9	Z9	X10	Y10	Z10	X11	Y11	Z11	X12	Y12	Z12	X13	Y13	Z13	X14	Y14	Z14	X15	Y15	Z15	X16	Y16	Z16	X17	Y17	Z17	X18	Y18	Z18	X19	Y19	Z19	X20	Y20	Z20	X21	Y21	Z21	X22	Y22	Z22	X23	Y23	Z23	X24	Y24	Z24	X25	Y25	Z25	X26	Y26	Z26	X27	Y27	Z27	X28	Y28	Z28	X29	Y29	Z29	X30	Y30	Z30	X31	Y31	Z31	X32	Y32	Z32	X33	Y33	Z33	X34	Y34	Z34	X35	Y35	Z35	X36	Y36	Z36	X37	Y37	Z37	X38	Y38	Z38	X39	Y39	Z39	X40	Y40	Z40	X41	Y41	Z41	X42	Y42	Z42	X43	Y43	Z43	X44	Y44	Z44	X45	Y45	Z45	X46	Y46	Z46	X47	Y47	Z47	X48	Y48	Z48	X49	Y49	Z49	X50	Y50	Z50	X51	Y51	Z51	X52	Y52	Z52	X53	Y53	Z53	X54	Y54	Z54	X55	Y55	Z55	X56	Y56	Z56	X57	Y57	Z57	X58	Y58	Z58	X59	Y59	Z59	X60	Y60	Z60	X61	Y61	Z61	
0	0.00	0.3585	0.8838	0.5611	0.3252	0.8965	0.3617	0.2676	0.4503	0.6170	0.2599	0.4789	0.3064	0.2488	0.3880	0.6230	0.2342	0.3932	0.2919	0.2188	0.2061	0.7028	0.2458	0.1533	0.6844	0.2732	0.1566	0.7279	0.1864	0.2144	0.2214	0.2031	0.1526	0.2348	0.2309	0.1573	0.1915	0.3419	0.8902	0.4614	0.3419	0.8902	0.4614	0.2410	0.0374	0.6660	0.1900	0.0442	0.2589	0.2094	0.2964	0.6230	0.1869	0.3007	0.2978	0.0159	-0.0054	0.0381	0.0096	-0.0003	-0.0374	0.3318	1.2878	0.4724	0.2271	0.6575	0.3710	0.0078	0.0264	-0.0466	0.2394	0.6528	0.5626	0.0130	0.0339	0.0451	-0.0528	-0.0167	-0.0866	-0.0503	-0.0256	0.0754	0.1800	-0.0485	0.1552	0.0621	0.0000	0.0000	0.0000	0.0000	0.0000	0.0038	0.0514	0.0000	-0.0659	-0.0367	-0.0526	-0.0643	-0.0388	0.0420	0.2075	-0.0345	-0.1335	0.0654	0.0000	0.0000	0.0000	0.0000	0.0000	0.0062	0.0513	0.0000	0.2219	1.3363	0.4621	0.3587	0.8838	0.5623	0.3250	0.8966	0.3605	0.3274	1.2896	0.5244	0.3362	1.2860	0.4203	0.2480	0.8294	0.4092	0.2687	0.8215	0.5332	0.1925	0.4580	0.6540	0.1951	0.4637	0.2729	0.1986	0.0628	0.6967	0.1426	0.0810	0.2259	0.2043	0.4508	0.5978	0.2020	0.4516	0.3253	0.2168	0.0695	0.6599	0.1647	0.0791	0.2575	0.1635	0.0373	0.6386	0.1127	0.0507	0.2623	0.3388	0.0375	0.7007	0.2876	0.0361	0.2546	0.1925	0.9572	0.4821	0.2351	0.0762	0.6232	0.1868	0.0771	0.2890	0.2162	0.4436	0.5417	0.2089	0.4395	0.3776
1	0.01	0.3586	0.8838	0.5611	0.3253	0.8965	0.3617	0.2676	0.4503	0.6170	0.2599	0.4789	0.3064	0.2488	0.3880	0.6230	0.2342	0.3932	0.2919	0.2188	0.2061	0.7028	0.2458	0.1533	0.6843	0.2732	0.1566	0.7279	0.1864	0.2144	0.2214	0.2031	0.1526	0.2349	0.2309	0.1572	0.1915	0.3419	0.8901	0.4614	0.3419	0.8901	0.4614	0.2410	0.0374	0.6660	0.1900	0.0443	0.2589	0.2093	0.2964	0.6230	0.1869	0.3007	0.2978	0.0158	-0.0054	0.0381	0.0096	-0.0003	-0.0374	0.3319	1.2878	0.4724	0.2271	0.6575	0.3710	0.0078	0.0264	-0.0466	0.2394	0.6529	0.5626	0.0129	0.0338	0.0451	-0.0527	-0.0167	-0.0867	-0.0502	-0.0256	0.0755	0.1800	-0.0486	0.1552	0.0622	0.0000	0.0000	0.0000	0.0000	0.0000	0.0038	0.0514	0.0000	-0.0659	-0.0366	-0.0526	-0.0643	-0.0388	0.0420	0.2075	-0.0345	-0.1336	0.0654	0.0000	0.0000	0.0000	0.0000	0.0000	0.0062	0.0513	0.0000	0.2221	1.3364	0.4621	0.3588	0.8838	0.5623	0.3251	0.8965	0.3605	0.3275	1.2895	0.5245	0.3364	1.2860	0.4204	0.2480	0.8294	0.4093	0.2687	0.8215	0.5333	0.1925	0.4580	0.6539	0.1952	0.4637	0.2729	0.1985	0.0628	0.6967	0.1426	0.0810	0.2258	0.2042	0.4508	0.5978	0.2021	0.4516	0.3252	0.2168	0.0695	0.6599	0.1647	0.0791	0.2574	0.1635	0.0374	0.6385	0.1126	0.0508	0.2623	0.3387	0.0375	0.7007	0.2876	0.0361	0.2546	0.1926	0.9572	0.4820	0.2350	0.0762	0.6232	0.1868	0.0771	0.2891	0.2160	0.4436	0.5417	0.2089	0.4395	0.3776
2	0.02	0.3587	0.8839	0.5611	0.3254	0.8964	0.3617	0.2677	0.4504	0.6169	0.2599	0.4789	0.3064	0.2488	0.3880	0.6229	0.2343	0.3932	0.2919	0.2188	0.2062	0.7027	0.2458	0.1533	0.6843	0.2733	0.1566	0.7278	0.1864	0.2144	0.2214	0.2032	0.1526	0.2348	0.2309	0.1572	0.1915	0.3420	0.8901	0.4614	0.3420	0.8901	0.4614	0.2410	0.0375	0.6659	0.1899	0.0443	0.2589	0.2093	0.2964	0.6230	0.1870	0.3007	0.2978	0.0158	-0.0053	0.0381	0.0096	-0.0003	-0.0374	0.3322	1.2878	0.4725	0.2271	0.6575	0.3710	0.0078	0.0264	-0.0466	0.2394	0.6529	0.5626	0.0129	0.0337	0.0451	-0.0527	-0.0167	-0.0867	-0.0502	-0.0256	0.0754	0.1800	-0.0486	0.1552	0.0622	0.0000	0.0000	0.0000	0.0000	0.0000	0.0038	0.0514	0.0000	-0.0659	-0.0366	-0.0527	-0.0642	-0.0388	0.0420	0.2075	-0.0345	-0.1335	0.0654	0.0000	0.0000	0.0000	0.0000	0.0000	0.0061	0.0513	0.0000	0.2223	1.3364	0.4621	0.3589	0.8838	0.5623	0.3252	0.8965	0.3605	0.3277	1.2895	0.5245	0.3366	1.2860	0.4205	0.2481	0.8294	0.4093	0.2688	0.8216	0.5333	0.1925	0.4581	0.6539	0.1952	0.4637	0.2729	0.1985	0.0629	0.6966	0.1426	0.0811	0.2258	0.2041	0.4509	0.5978	0.2021	0.4516	0.3252	0.2168	0.0695	0.6599	0.1647	0.0791	0.2574	0.1635	0.0374	0.6385	0.1126	0.0508	0.2623	0.3387	0.0375	0.7006	0.2876	0.0361	0.2546	0.1927	0.9573	0.4820	0.2351	0.0762	0.6232	0.1868	0.0772	0.2890	0.2157	0.4437	0.5418	0.2090	0.4395	0.3776
3	0.03	0.3588	0.8839	0.5610	0.3255	0.8965	0.3617	0.2677	0.4504	0.6168	0.2600	0.4789	0.3063	0.2489	0.3880	0.6229	0.2343	0.3932	0.2918	0.2189	0.2062	0.7027	0.2459	0.1533	0.6843	0.2733	0.1567	0.7278	0.1864	0.2144	0.2214	0.2032	0.1527	0.2348	0.2309	0.1573	0.1915	0.3421	0.8902	0.4613	0.3421	0.8902	0.4613	0.2410	0.0375	0.6659	0.1900	0.0443	0.2589	0.2093	0.2965	0.6229	0.1870	0.3008	0.2978	0.0158	-0.0053	0.0381	0.0096	-0.0003	-0.0374	0.3324	1.2878	0.4725	0.2272	0.6575	0.3710	0.0079	0.0264	-0.0466	0.2395	0.6529	0.5626	0.0129	0.0337	0.0451	-0.0527	-0.0167	-0.0867	-0.0503	-0.0256	0.0754	0.1800	-0.0487	0.1552	0.0622	0.0000	0.0000	0.0000	0.0000	0.0000	0.0038	0.0514	0.0000	-0.0659	-0.0367	-0.0527	-0.0642	-0.0388	0.0419	0.2075	-0.0345	-0.1335	0.0654	0.0000	0.0000	0.0000	0.0000	0.0000	0.0061	0.0513	0.0000	0.2225	1.3364	0.4621	0.3590	0.8838	0.5622	0.3253	0.8966	0.3604	0.3279	1.2896	0.5245	0.3368	1.2860	0.4205	0.2481	0.8295	0.4092	0.2689	0.8216	0.5332	0.1926	0.4581	0.6539	0.1952	0.4637	0.2729	0.1986	0.0629	0.6966	0.1426	0.0811	0.2258	0.2042	0.4509	0.5978	0.2021	0.4516	0.3252	0.2168	0.0696	0.6599	0.1647	0.0791	0.2574	0.1635	0.0375	0.6385	0.1126	0.0508	0.2623	0.3388	0.0375	0.7007	0.2876	0.0361	0.2546	0.1928	0.9573	0.4820	0.2351	0.0763	0.6231	0.1868	0.0772	0.2890	0.2159	0.4437	0.5417	0.2090	0.4396	0.3776
4	0.04	0.3588	0.8839	0.5610	0.3255	0.8965	0.3616	0.2677	0.4504	0.6168	0.2600	0.4790	0.3063	0.2489	0.3880	0.6229	0.2343	0.3932	0.2918	0.2189	0.2062	0.7027	0.2459	0.1533	0.6843	0.2734	0.1566	0.7278	0.1864	0.2145	0.2214	0.2031	0.1527	0.2348	0.2309	0.1573	0.1915	0.3422	0.8902	0.4613	0.3422	0.8902	0.4613	0.2410	0.0375	0.6660	0.1899	0.0443	0.2589	0.2092	0.2965	0.6230	0.1870	0.3008	0.2978	0.0158	-0.0053	0.0381	0.0096	-0.0003	-0.0374	0.3325	1.2878	0.4725	0.2272	0.6576	0.3710	0.0079	0.0264	-0.0466	0.2394	0.6530	0.5626	0.0129	0.0335	0.0451	-0.0527	-0.0167	-0.0867	-0.0503	-0.0256	0.0754	0.1801	-0.0486	0.1551	0.0621	0.0000	0.0000	0.0000	0.0000	0.0000	0.0038	0.0514	0.0000	-0.0659	-0.0367	-0.0526	-0.0643	-0.0388	0.0420	0.2075	-0.0344	-0.1336	0.0654	0.0000	0.0000	0.0000	0.0000	0.0000	0.0061	0.0513	0.0000	0.2227	1.3364	0.4621	0.3590	0.8838	0.5622	0.3253	0.8966	0.3604	0.3281	1.2895	0.5245	0.3370	1.2860	0.4205	0.2482	0.8295	0.4092	0.2689	0.8216	0.5332	0.1926	0.4581	0.6539	0.1952	0.4637	0.2728	0.1986	0.0629	0.6966	0.1426	0.0811	0.2258	0.2041	0.4509	0.5978	0.2021	0.4516	0.3252	0.2168	0.0696	0.6599	0.1647	0.0791	0.2574	0.1635	0.0375	0.6385	0.1126	0.0508	0.2623	0.3388	0.0375	0.7007	0.2876	0.0361	0.2546	0.1930	0.9573	0.4819	0.2350	0.0763	0.6231	0.1868	0.0772	0.2890	0.2155	0.4437	0.5418	0.2090	0.4396	0.3776
5	0.05	0.3589	0.8838	0.5610	0.3256	0.8965	0.3616	0.2677	0.4504	0.6168	0.2600	0.4789	0.3064	0.2489	0.3880	0.6229	0.2343	0.3932	0.2918	0.2189	0.2062	0.7027	0.2459	0.1533	0.6843	0.2734	0.1566	0.7278	0.1864	0.2145	0.2214	0.2032	0.1527	0.2349	0.2309	0.1573	0.1915	0.3422	0.8901	0.4613	0.3422	0.8901	0.4613	0.2410	0.0375	0.6660	0.1899	0.0443	0.2589	0.2093	0.2964	0.6229	0.1869	0.3008	0.2978	0.0158	-0.0053	0.0381	0.0096	-0.0003	-0.0374	0.3327	1.2877	0.4726	0.2273	0.6576	0.3710	0.0078	0.0264	-0.0467	0.2395	0.6529	0.5626	0.0129	0.0336	0.0451	-0.0528	-0.0168	-0.0866	-0.0502	-0.0256	0.0755	0.1801	-0.0486	0.1551	0.0621	0.0000	0.0000	0.0000	0.0000	0.0000	0.0038	0.0514	0.0000	-0.0659	-0.0367	-0.0526	-0.0643	-0.0388	0.0420	0.2075	-0.0345	-0.1336	0.0654	0.0000	0.0000	0.0000	0.0000	0.0000	0.0061	0.0513	0.0000	0.2229	1.3364	0.4621	0.3591	0.8837	0.5622	0.3254	0.8966	0.3604	0.3282	1.2894	0.5246	0.3372	1.2860	0.4206	0.2483	0.8295	0.4092	0.2690	0.8216	0.5332	0.1926	0.4580	0.6539	0.1952	0.4637	0.2728	0.1986	0.0628	0.6966	0.1426	0.0811	0.2258	0.2041	0.4509	0.5978	0.2021	0.4516	0.3252	0.2168	0.0695	0.6599	0.1647	0.0791	0.2574	0.1635	0.0375	0.6385	0.1126	0.0508	0.2623	0.3388	0.0375	0.7007	0.2875	0.0360	0.2546	0.1931	0.9573	0.4819	0.2350	0.0763	0.6231	0.1868	0.0771	0.2891	0.2156	0.4437	0.5417	0.2089	0.4395	0.3776
6	0.06	0.3589	0.8837	0.5610	0.3257	0.8965	0.3616	0.2677	0.4503	0.6169	0.2601	0.4789	0.3063	0.2489	0.3879	0.6229	0.2343	0.3932	0.2919	0.2190	0.2061	0.7028	0.2459	0.1532	0.6843	0.2734	0.1565	0.7278	0.1864	0.2144	0.2214	0.2032	0.1526	0.2349	0.2310	0.1572	0.1915	0.3423	0.8901	0.4613	0.3423	0.8901	0.4613	0.2410	0.0374	0.6660	0.1899	0.0442	0.2589	0.2093	0.2964	0.6229	0.1869	0.3007	0.2978	0.0159	-0.0053	0.0381	0.0096	-0.0003	-0.0374	0.3329	1.2876	0.4726	0.2273	0.6575	0.3709	0.0078	0.0264	-0.0467	0.2395	0.6529	0.5625	0.0130	0.0337	0.0451	-0.0528	-0.0168	-0.0866	-0.0503	-0.0256	0.0755	0.1801	-0.0486	0.1551	0.0621	0.0000	0.0000	0.0000	0.0000	0.0000	0.0038	0.0514	0.0000	-0.0659	-0.0367	-0.0525	-0.0643	-0.0388	0.0421	0.2075	-0.0346	-0.1336	0.0654	0.0000	0.0000	0.0000	0.0000	0.0000	0.0062	0.0513	0.0000	0.2231	1.3364	0.4622	0.3592	0.8836	0.5622	0.3255	0.8965	0.3604	0.3284	1.2893	0.5246	0.3374	1.2859	0.4206	0.2484	0.8294	0.4091	0.2690	0.8215	0.5331	0.1926	0.4580	0.6539	0.1953	0.4637	0.2728	0.1986	0.0628	0.6966	0.1426	0.0810	0.2259	0.2042	0.4508	0.5978	0.2021	0.4516	0.3252	0.2168	0.0695	0.6599	0.1646	0.0790	0.2575	0.1635	0.0374	0.6385	0.1126	0.0507	0.2623	0.3388	0.0374	0.7008	0.2875	0.0360	0.2546	0.1932	0.9572	0.4820	0.2351	0.0762	0.6231	0.1867	0.0770	0.2891	0.2158	0.4437	0.5417	0.2089	0.4395	0.3776
7	0.07	0.3590	0.8837	0.5609	0.3258	0.8964	0.3616	0.2677	0.4503	0.6168	0.2601	0.4789	0.3063	0.2489	0.3879	0.6228	0.2344	0.3932	0.2918	0.2190	0.2061	0.7027	0.2459	0.1532	0.6843	0.2735	0.1565	0.7277	0.1864	0.2144	0.2214	0.2032	0.1526	0.2348	0.2310	0.1572	0.1915	0.3424	0.8901	0.4613	0.3424	0.8901	0.4613	0.2410	0.0374	0.6660	0.1899	0.0442	0.2589	0.2092	0.2964	0.6230	0.1869	0.3007	0.2977	0.0159	-0.0053	0.0381	0.0096	-0.0003	-0.0374	0.3331	1.2876	0.4727	0.2274	0.6575	0.3709	0.0078	0.0264	-0.0467	0.2395	0.6529	0.5625	0.0130	0.0335	0.0451	-0.0528	-0.0168	-0.0866	-0.0503	-0.0256	0.0755	0.1802	-0.0486	0.1550	0.0621	0.0000	0.0000	0.0000	0.0000	0.0000	0.0038	0.0514	0.0000	-0.0659	-0.0367	-0.0526	-0.0643	-0.0388	0.0421	0.2075	-0.0346	-0.1336	0.0655	0.0000	0.0000	0.0000	0.0000	0.0000	0.0062	0.0513	0.0000	0.2233	1.3363	0.4622	0.3592	0.8836	0.5622	0.3256	0.8965	0.3604	0.3286	1.2893	0.5246	0.3376	1.2859	0.4207	0.2484	0.8294	0.4091	0.2691	0.8215	0.5331	0.1927	0.4580	0.6539	0.1953	0.4637	0.2727	0.1986	0.0628	0.6966	0.1425	0.0810	0.2259	0.2041	0.4509	0.5978	0.2021	0.4516	0.3252	0.2168	0.0695	0.6599	0.1646	0.0790	0.2575	0.1635	0.0374	0.6385	0.1126	0.0507	0.2623	0.3388	0.0374	0.7008	0.2875	0.0360	0.2547	0.1933	0.9572	0.4819	0.2350	0.0762	0.6231	0.1867	0.0770	0.2891	0.2155	0.4438	0.5417	0.2089	0.4394	0.3776
8	0.08	0.3591	0.8837	0.5609	0.3259	0.8964	0.3616	0.2677	0.4503	0.6168	0.2601	0.4789	0.3063	0.2489	0.3879	0.6228	0.2344	0.3931	0.2918	0.2191	0.2061	0.7027	0.2460	0.1532	0.6842	0.2735	0.1565	0.7277	0.1864	0.2144	0.2213	0.2032	0.1526	0.2348	0.2310	0.1572	0.1915	0.3425	0.8900	0.4612	0.3425	0.8900	0.4612	0.2410	0.0374	0.6660	0.1899	0.0442	0.2589	0.2092	0.2964	0.6230	0.1869	0.3007	0.2977	0.0158	-0.0053	0.0380	0.0096	-0.0003	-0.0374	0.3333	1.2876	0.4727	0.2274	0.6575	0.3708	0.0078	0.0264	-0.0467	0.2395	0.6529	0.5625	0.0130	0.0335	0.0451	-0.0528	-0.0168	-0.0866	-0.0502	-0.0256	0.0755	0.1802	-0.0487	0.1550	0.0621	0.0000	0.0000	0.0000	0.0000	0.0000	0.0038	0.0514	0.0000	-0.0659	-0.0367	-0.0526	-0.0643	-0.0388	0.0420	0.2075	-0.0346	-0.1336	0.0654	0.0000	0.0000	0.0000	0.0000	0.0000	0.0062	0.0513	0.0000	0.2235	1.3364	0.4622	0.3593	0.8836	0.5621	0.3257	0.8965	0.3603	0.3288	1.2893	0.5246	0.3378	1.2859	0.4207	0.2485	0.8294	0.4090	0.2691	0.8215	0.5330	0.1927	0.4580	0.6539	0.1953	0.4637	0.2727	0.1986	0.0628	0.6966	0.1425	0.0810	0.2258	0.2040	0.4509	0.5978	0.2021	0.4516	0.3251	0.2168	0.0695	0.6599	0.1646	0.0790	0.2574	0.1635	0.0375	0.6385	0.1126	0.0508	0.2623	0.3388	0.0374	0.7008	0.2875	0.0360	0.2546	0.1935	0.9573	0.4819	0.2349	0.0762	0.6232	0.1867	0.0770	0.2890	0.2154	0.4438	0.5418	0.2089	0.4395	0.3775
